<svg width="36" height="35" viewBox="0 0 36 35" fill="none" xmlns="http://www.w3.org/2000/svg">
<path d="M17.549 11.1123C16.5491 10.5996 15.4137 10.4134 14.3024 10.5798C13.1911 10.7461 12.16 11.2568 11.3541 12.0398C10.371 13.0241 9.81876 14.3585 9.81876 15.7497C9.81876 17.1409 10.371 18.4753 11.3541 19.4596L16.3065 24.4995C16.4692 24.6636 16.6627 24.7937 16.876 24.8826C17.0892 24.9714 17.318 25.0172 17.549 25.0172C17.78 25.0172 18.0087 24.9714 18.222 24.8826C18.4352 24.7937 18.6288 24.6636 18.7915 24.4995L23.7439 19.5471C24.727 18.5628 25.2792 17.2284 25.2792 15.8372C25.2792 14.446 24.727 13.1116 23.7439 12.1273C22.9481 11.33 21.9218 10.803 20.8101 10.6209C19.6984 10.4387 18.5576 10.6106 17.549 11.1123ZM21.2589 16.9922L17.549 20.7021L13.8391 16.9922C13.675 16.8295 13.5449 16.6359 13.456 16.4227C13.3672 16.2094 13.3214 15.9807 13.3214 15.7497C13.3214 15.5187 13.3672 15.29 13.456 15.0767C13.5449 14.8635 13.675 14.6699 13.8391 14.5072C14.1669 14.1813 14.6105 13.9983 15.0728 13.9983C15.5351 13.9983 15.9786 14.1813 16.3065 14.5072C16.4692 14.6712 16.6627 14.8014 16.876 14.8903C17.0892 14.9791 17.318 15.0249 17.549 15.0249C17.78 15.0249 18.0087 14.9791 18.222 14.8903C18.4352 14.8014 18.6288 14.6712 18.7915 14.5072C19.1193 14.1813 19.5629 13.9983 20.0252 13.9983C20.4875 13.9983 20.931 14.1813 21.2589 14.5072C21.4229 14.6699 21.5531 14.8635 21.642 15.0767C21.7308 15.29 21.7766 15.5187 21.7766 15.7497C21.7766 15.9807 21.7308 16.2094 21.642 16.4227C21.5531 16.6359 21.4229 16.8295 21.2589 16.9922ZM17.549 0C15.2509 0 12.9753 0.452642 10.8522 1.33208C8.729 2.21152 6.79985 3.50054 5.17486 5.12553C1.89303 8.40736 0.0493252 12.8585 0.0493252 17.4997C0.0340267 21.5406 1.43319 25.4595 4.00425 28.577L0.504317 32.0769C0.261495 32.323 0.097005 32.6355 0.0316015 32.9749C-0.033802 33.3144 0.00281202 33.6657 0.136823 33.9844C0.282172 34.2992 0.517798 34.5638 0.813793 34.7445C1.10979 34.9252 1.4528 35.0139 1.79929 34.9993H17.549C22.1902 34.9993 26.6413 33.1556 29.9231 29.8738C33.205 26.592 35.0487 22.1409 35.0487 17.4997C35.0487 12.8585 33.205 8.40736 29.9231 5.12553C26.6413 1.84371 22.1902 0 17.549 0ZM17.549 31.4994H6.01671L7.64418 29.8719C7.97011 29.5441 8.15306 29.1005 8.15306 28.6382C8.15306 28.1759 7.97011 27.7324 7.64418 27.4045C5.35275 25.1156 3.92581 22.103 3.60647 18.88C3.28713 15.657 4.09515 12.423 5.89286 9.72898C7.69058 7.03493 10.3668 5.04753 13.4655 4.10537C16.5642 3.16322 19.8937 3.3246 22.8868 4.56201C25.8798 5.79943 28.3513 8.03633 29.88 10.8916C31.4088 13.7469 31.9002 17.0439 31.2707 20.2209C30.6412 23.3979 28.9296 26.2583 26.4275 28.3149C23.9255 30.3714 20.7878 31.4969 17.549 31.4994Z" fill="#8886C4"/>
</svg>
