<svg width="36" height="36" viewBox="0 0 36 36" fill="none" xmlns="http://www.w3.org/2000/svg">
<path d="M18 0C14.4399 0 10.9598 1.05568 7.99974 3.03355C5.03966 5.01141 2.73255 7.82263 1.37018 11.1117C0.00779915 14.4008 -0.348661 18.02 0.345873 21.5116C1.04041 25.0033 2.75474 28.2106 5.27209 30.7279C7.78943 33.2453 10.9967 34.9596 14.4884 35.6541C17.98 36.3487 21.5992 35.9922 24.8883 34.6298C28.1774 33.2675 30.9886 30.9603 32.9665 28.0003C34.9443 25.0402 36 21.5601 36 18C36 15.6362 35.5344 13.2956 34.6298 11.1117C33.7253 8.92784 32.3994 6.94353 30.7279 5.27208C29.0565 3.60062 27.0722 2.27475 24.8883 1.37017C22.7044 0.465584 20.3638 0 18 0ZM18 32.4C15.152 32.4 12.3679 31.5554 9.99979 29.9732C7.63173 28.3909 5.78604 26.1419 4.69614 23.5106C3.60624 20.8794 3.32107 17.984 3.8767 15.1907C4.43233 12.3974 5.80379 9.83154 7.81767 7.81766C9.83154 5.80379 12.3974 4.43232 15.1907 3.87669C17.984 3.32106 20.8794 3.60623 23.5106 4.69613C26.1419 5.78604 28.3909 7.63172 29.9732 9.99979C31.5555 12.3679 32.4 15.1519 32.4 18C32.4 21.8191 30.8829 25.4818 28.1823 28.1823C25.4818 30.8829 21.8191 32.4 18 32.4ZM19.8 17.874V9C19.8 8.52261 19.6104 8.06477 19.2728 7.72721C18.9352 7.38964 18.4774 7.2 18 7.2C17.5226 7.2 17.0648 7.38964 16.7272 7.72721C16.3896 8.06477 16.2 8.52261 16.2 9V18C16.2 18 16.2 18.126 16.2 18.198C16.1557 18.5639 16.2248 18.9346 16.398 19.26L19.098 23.94C19.3367 24.3553 19.7306 24.6588 20.1931 24.7837C20.6555 24.9086 21.1487 24.8447 21.564 24.606C21.9793 24.3673 22.2828 23.9734 22.4077 23.5109C22.5326 23.0485 22.4687 22.5553 22.23 22.14L19.8 17.874Z" fill="#8886C4"/>
</svg>
